<?xml version="1.0" encoding="UTF-8"?>
<svg width="69.57mm" height="69.57mm" version="1.1" viewBox="0 0 69.57 69.57" xmlns="http://www.w3.org/2000/svg" xmlns:cc="http://creativecommons.org/ns#" xmlns:dc="http://purl.org/dc/elements/1.1/" xmlns:rdf="http://www.w3.org/1999/02/22-rdf-syntax-ns#">
<defs>
<clipPath id="a">
<path d="m113.41 59.292c-13.216 0-18.615 1.8264-22.713 5.9245-4.6763 4.6763-6.2029 11.675-12.072 11.675s-7.3953-6.9982-12.072-11.675c-4.0981-4.0981-9.4972-5.9245-22.713-5.9245v42.39c13.216 0 18.615-1.8264 22.713-5.9245 4.6763-4.6763 6.2029-11.675 12.072-11.675s7.3953 6.9982 12.072 11.675c4.0981 4.0981 9.4972 5.9245 22.713 5.9245z" fill="#c49c77"/>
</clipPath>
</defs>
<metadata>
<rdf:RDF>
<cc:Work rdf:about="">
<dc:format>image/svg+xml</dc:format>
<dc:type rdf:resource="http://purl.org/dc/dcmitype/StillImage"/>
<dc:title/>
</cc:Work>
</rdf:RDF>
</metadata>
<g transform="translate(-43.836 -45.702)">
<path d="m113.41 59.292c-13.216 0-18.615 1.8264-22.713 5.9245-4.6763 4.6763-6.2029 11.675-12.072 11.675s-7.3953-6.9982-12.072-11.675c-4.0981-4.0981-9.4972-5.9245-22.713-5.9245v42.39c13.216 0 18.615-1.8264 22.713-5.9245 4.6763-4.6763 6.2029-11.675 12.072-11.675s7.3953 6.9982 12.072 11.675c4.0981 4.0981 9.4972 5.9245 22.713 5.9245z" fill="#c49c77"/>
<g clip-path="url(#a)" fill="#dfba96">
<ellipse transform="matrix(.85632 .51644 .68523 -.72832 0 0)" cx="104.28" cy="-51.228" rx="15.158" ry="7.2065"/>
<ellipse transform="matrix(.93959 .34232 -.32186 .94679 0 0)" cx="130.48" cy="29.048" rx="10.135" ry="6.2494"/>
<ellipse transform="matrix(.99132 -.13148 .12345 .99235 0 0)" cx="81.453" cy="102.96" rx="11.305" ry="7.2265"/>
<ellipse transform="matrix(.86416 -.50322 -.60447 -.79663 0 0)" cx="10.234" cy="-90.372" rx="11.609" ry="7.3292"/>
</g>
<path d="m113.41 59.292c-13.216 0-18.615 1.8264-22.713 5.9245-4.6763 4.6763-6.2029 11.675-12.072 11.675s-7.3953-6.9982-12.072-11.675c-4.0981-4.0981-9.4972-5.9245-22.713-5.9245m0 42.39c13.216 0 18.615-1.8264 22.713-5.9245 4.6763-4.6763 6.2029-11.675 12.072-11.675s7.3953 6.9982 12.072 11.675c4.0981 4.0981 9.4972 5.9245 22.713 5.9245" fill="none" stroke="#302125" stroke-width="2.465"/>
</g>
</svg>
