<?xml version="1.0" encoding="UTF-8" standalone="no"?>
<svg
   xmlns:dc="http://purl.org/dc/elements/1.1/"
   xmlns:cc="http://creativecommons.org/ns#"
   xmlns:rdf="http://www.w3.org/1999/02/22-rdf-syntax-ns#"
   xmlns:svg="http://www.w3.org/2000/svg"
   xmlns="http://www.w3.org/2000/svg"
   xmlns:sodipodi="http://sodipodi.sourceforge.net/DTD/sodipodi-0.dtd"
   xmlns:inkscape="http://www.inkscape.org/namespaces/inkscape"
   width="83.379349pt"
   height="84.286133pt"
   version="1.1"
   id="svg43"
   sodipodi:docname="python.svg"
   inkscape:version="1.0.2 (1.0.2+r75+1)">
  <sodipodi:namedview
     pagecolor="#ffffff"
     bordercolor="#666666"
     borderopacity="1"
     objecttolerance="10"
     gridtolerance="10"
     guidetolerance="10"
     inkscape:pageopacity="0"
     inkscape:pageshadow="2"
     inkscape:window-width="1544"
     inkscape:window-height="873"
     id="namedview45"
     showgrid="false"
     fit-margin-top="0"
     fit-margin-left="0"
     fit-margin-right="0"
     fit-margin-bottom="0"
     inkscape:zoom="1.8291478"
     inkscape:cx="55.220442"
     inkscape:cy="125.75655"
     inkscape:window-x="56"
     inkscape:window-y="27"
     inkscape:window-maximized="1"
     inkscape:current-layer="svg43" />
  <title
     id="title2">Python programming language logo</title>
  <metadata
     id="metadata4">
    <rdf:RDF>
      <dc:format>image/svg+xml</dc:format>
      <dc:type
         rdf:resource="http://purl.org/dc/dcmitype/StillImage" />
      <dc:title />
      <cc:Work
         rdf:about="">
        <dc:format>image/svg+xml</dc:format>
        <dc:type
           rdf:resource="http://purl.org/dc/dcmitype/StillImage" />
        <dc:title>Python programming language logo</dc:title>
      </cc:Work>
    </rdf:RDF>
  </metadata>
  <defs
     id="defs21">
    <linearGradient
       id="vlpc"
       x1="151"
       x2="112"
       y1="192.39999"
       y2="137.3"
       gradientTransform="matrix(0.5625,0,0,0.568,-14.992404,-11.698106)"
       gradientUnits="userSpaceOnUse">
      <stop
         style="stop-color:#ffd43b"
         offset="0"
         id="stop6" />
      <stop
         style="stop-color:#ffe873"
         offset="1"
         id="stop8" />
    </linearGradient>
    <linearGradient
       id="vlpb"
       x1="26.65"
       x2="135.7"
       y1="20.6"
       y2="114.4"
       gradientTransform="matrix(0.5625,0,0,0.568,-14.992404,-11.698106)"
       gradientUnits="userSpaceOnUse">
      <stop
         style="stop-color:#5a9fd4"
         offset="0"
         id="stop11" />
      <stop
         style="stop-color:#306998"
         offset="1"
         id="stop13" />
    </linearGradient>
    <radialGradient
       id="vlpa"
       cx="61.52"
       cy="132.3"
       r="29.040001"
       gradientTransform="matrix(2.383e-8,-0.2964,1.437,4.684e-7,-128.5,150.5)"
       gradientUnits="userSpaceOnUse">
      <stop
         style="stop-color:#b8b8b8;stop-opacity:.498"
         offset="0"
         id="stop16" />
      <stop
         style="stop-color:#7f7f7f;stop-opacity:0"
         offset="1"
         id="stop18" />
    </radialGradient>
  </defs>
  <path
     d="m 54.917596,0.00489449 c -4.584,0.0213 -8.961,0.4122 -12.81,1.09400001 -11.35,2.005 -13.41,6.2 -13.41,13.9399995 v 10.22 h 26.81 v 3.406 h -26.81 -10.06 c -7.792,0 -14.6199997,4.684 -16.7499997,13.59 -2.46200004,10.21 -2.57100004,16.59 0,27.25 1.906,7.938 6.458,13.59 14.2499997,13.59 h 9.219 v -12.25 c 0,-8.85 7.657,-16.66 16.75,-16.66 h 26.78 c 7.455,0 13.41,-6.138 13.41,-13.62 v -25.53 c 0,-7.2659995 -6.13,-12.7199995 -13.41,-13.9399995 -4.606,-0.76670001 -9.385,-1.11500001 -13.97,-1.09400001202 z m -14.5,8.21900001 c 2.77,0 5.031,2.2989995 5.031,5.1249995 -2e-6,2.816 -2.262,5.094 -5.031,5.094 -2.779,-10e-7 -5.031,-2.277 -5.031,-5.094 -10e-7,-2.826 2.252,-5.1249995 5.031,-5.1249995 z"
     style="fill:url(#vlpb)"
     id="path35" />
  <path
     d="m 85.637596,28.656894 v 11.91 c 0,9.231 -7.826,17 -16.75,17 h -26.78 c -7.336,0 -13.41,6.278 -13.41,13.62 v 25.53 c 0,7.265996 6.319,11.539996 13.41,13.619996 8.487,2.496 16.63,2.947 26.78,0 6.75,-1.954 13.41,-5.888 13.41,-13.619996 v -10.22 h -26.78 v -3.406 h 26.78 13.41 c 7.792004,0 10.700004,-5.435 13.410004,-13.59 2.799,-8.399 2.68,-16.48 0,-27.25 -1.926,-7.757 -5.604,-13.59 -13.410004,-13.59 h -10.06 z m -15.06,64.66 c 2.779,3e-6 5.031,2.277 5.031,5.094 -2e-6,2.825996 -2.252,5.124996 -5.031,5.124996 -2.77,0 -5.031,-2.299 -5.031,-5.124996 2e-6,-2.816 2.262,-5.094 5.031,-5.094 z"
     style="fill:url(#vlpc)"
     id="path37" />
</svg>
