<?xml version="1.0" encoding="UTF-8" standalone="no"?>
<svg
   xmlns:dc="http://purl.org/dc/elements/1.1/"
   xmlns:cc="http://creativecommons.org/ns#"
   xmlns:rdf="http://www.w3.org/1999/02/22-rdf-syntax-ns#"
   xmlns:svg="http://www.w3.org/2000/svg"
   xmlns="http://www.w3.org/2000/svg"
   xmlns:sodipodi="http://sodipodi.sourceforge.net/DTD/sodipodi-0.dtd"
   xmlns:inkscape="http://www.inkscape.org/namespaces/inkscape"
   width="142.15381"
   height="142.16603"
   version="1.1"
   viewBox="19 19 104.641 104.64999"
   xml:space="preserve"
   id="svg8"
   sodipodi:docname="rust.svg"
   inkscape:version="1.0.2 (1.0.2+r75+1)"><defs
     id="defs12" /><sodipodi:namedview
     pagecolor="#ffffff"
     bordercolor="#666666"
     borderopacity="1"
     objecttolerance="10"
     gridtolerance="10"
     guidetolerance="10"
     inkscape:pageopacity="0"
     inkscape:pageshadow="2"
     inkscape:window-width="1544"
     inkscape:window-height="873"
     id="namedview10"
     showgrid="false"
     inkscape:zoom="3.6042804"
     inkscape:cx="63.429021"
     inkscape:cy="68.02221"
     inkscape:window-x="56"
     inkscape:window-y="27"
     inkscape:window-maximized="1"
     inkscape:current-layer="svg8"
     fit-margin-top="0"
     fit-margin-left="0"
     fit-margin-right="0"
     fit-margin-bottom="0" /><title
     id="title2">Rust programming language logo</title><metadata
     id="metadata4"><rdf:RDF><cc:Work
         rdf:about=""><dc:format>image/svg+xml</dc:format><dc:type
           rdf:resource="http://purl.org/dc/dcmitype/StillImage" /><dc:title>Rust programming language logo</dc:title></cc:Work></rdf:RDF></metadata><path
     d="m 122.895,70.045 -4.39,-2.72 c -0.037,-0.428 -0.079,-0.855 -0.125,-1.28 l 3.78,-3.52 c 0.384,-0.358 0.556,-0.888 0.452,-1.4 -0.101,-0.515 -0.462,-0.939 -0.953,-1.12 l -4.83,-1.8 c -0.121,-0.418 -0.248,-0.833 -0.378,-1.25 l 3.01,-4.18 c 0.307,-0.425 0.37,-0.978 0.17,-1.46 -0.2,-0.483 -0.637,-0.829 -1.15,-0.914 l -5.09,-0.828 c -0.198,-0.386 -0.404,-0.766 -0.612,-1.14 l 2.14,-4.7 c 0.219,-0.478 0.174,-1.03 -0.118,-1.47 -0.291,-0.436 -0.784,-0.691 -1.31,-0.671 l -5.17,0.18 c -0.267,-0.334 -0.539,-0.665 -0.816,-0.99 l 1.19,-5.03 c 0.12,-0.511 -0.031,-1.05 -0.403,-1.42 -0.369,-0.37 -0.905,-0.523 -1.42,-0.403 l -5.03,1.19 c -0.326,-0.276 -0.657,-0.549 -0.992,-0.816 l 0.181,-5.17 c 0.02,-0.523 -0.235,-1.02 -0.671,-1.31 -0.437,-0.292 -0.99,-0.336 -1.47,-0.119 l -4.69,2.14 C 93.821,29.636 93.441,29.43 93.06,29.231 l -0.83,-5.09 c -0.084,-0.516 -0.43,-0.954 -0.914,-1.15 -0.483,-0.201 -1.04,-0.136 -1.46,0.17 l -4.18,3.01 C 85.264,26.04 84.85,25.914 84.436,25.794 l -1.8,-4.83 c -0.183,-0.492 -0.607,-0.853 -1.12,-0.955 -0.514,-0.101 -1.04,0.07 -1.4,0.452 l -3.52,3.78 c -0.425,-0.047 -0.853,-0.09 -1.28,-0.125 l -2.72,-4.4 C 72.321,19.271 71.834,19 71.306,19 c -0.528,0 -1.01,0.271 -1.28,0.716 l -2.72,4.4 c -0.428,0.035 -0.856,0.078 -1.28,0.125 l -3.52,-3.78 c -0.357,-0.382 -0.887,-0.553 -1.4,-0.452 -0.515,0.103 -0.939,0.463 -1.12,0.955 l -1.8,4.83 c -0.418,0.12 -0.832,0.247 -1.24,0.377 l -4.18,-3.01 c -0.425,-0.307 -0.979,-0.372 -1.46,-0.17 -0.483,0.2 -0.83,0.638 -0.914,1.15 l -0.83,5.09 c -0.384,0.199 -0.764,0.404 -1.14,0.613 l -4.69,-2.14 c -0.477,-0.218 -1.03,-0.173 -1.47,0.119 -0.436,0.29 -0.691,0.787 -0.671,1.31 l 0.18,5.17 c -0.334,0.267 -0.665,0.54 -0.992,0.816 l -5.03,-1.19 c -0.511,-0.119 -1.05,0.033 -1.42,0.403 -0.372,0.371 -0.523,0.906 -0.403,1.42 l 1.18,5.03 c -0.275,0.326 -0.547,0.656 -0.814,0.99 l -5.17,-0.18 c -0.521,-0.015 -1.02,0.235 -1.31,0.671 -0.292,0.434 -0.336,0.99 -0.119,1.47 l 2.14,4.7 c -0.208,0.377 -0.414,0.757 -0.613,1.14 l -5.09,0.828 c -0.517,0.084 -0.953,0.43 -1.15,0.914 -0.2,0.485 -0.135,1.04 0.17,1.46 l 3.01,4.18 c -0.131,0.413 -0.258,0.828 -0.378,1.25 l -4.83,1.8 c -0.49,0.183 -0.851,0.607 -0.953,1.12 -0.102,0.514 0.069,1.04 0.452,1.4 l 3.78,3.52 c -0.047,0.425 -0.089,0.853 -0.125,1.28 l -4.39,2.72 C 19.271,70.32 19,70.806 19,71.335 c 0,0.529 0.271,1.01 0.716,1.28 l 4.39,2.72 c 0.036,0.428 0.078,0.855 0.125,1.28 l -3.78,3.52 c -0.383,0.357 -0.554,0.887 -0.452,1.4 0.102,0.515 0.463,0.938 0.953,1.12 l 4.83,1.8 c 0.12,0.418 0.247,0.833 0.378,1.25 l -3.01,4.18 c -0.306,0.426 -0.371,0.979 -0.17,1.46 0.201,0.485 0.638,0.831 1.16,0.914 l 5.09,0.828 c 0.199,0.386 0.403,0.766 0.613,1.14 l -2.14,4.69 c -0.218,0.477 -0.173,1.03 0.119,1.47 0.292,0.437 0.789,0.692 1.31,0.671 l 5.16,-0.181 c 0.269,0.336 0.54,0.665 0.816,0.992 l -1.18,5.03 c -0.12,0.51 0.031,1.04 0.403,1.41 0.369,0.373 0.906,0.522 1.42,0.402 l 5.03,-1.18 c 0.327,0.278 0.658,0.548 0.992,0.814 l -0.18,5.17 c -0.02,0.523 0.235,1.02 0.671,1.31 0.434,0.291 0.99,0.335 1.47,0.117 l 4.69,-2.14 c 0.378,0.21 0.758,0.414 1.14,0.613 l 0.83,5.09 c 0.084,0.518 0.43,0.956 0.914,1.16 0.483,0.201 1.04,0.136 1.46,-0.169 l 4.18,-3.01 c 0.413,0.131 0.828,0.259 1.25,0.379 l 1.8,4.83 c 0.183,0.49 0.607,0.853 1.12,0.953 0.514,0.104 1.04,-0.068 1.4,-0.452 l 3.52,-3.78 c 0.425,0.049 0.853,0.09 1.28,0.128 l 2.72,4.39 c 0.274,0.443 0.761,0.716 1.28,0.716 0.519,0 1.01,-0.272 1.29,-0.716 l 2.72,-4.39 c 0.428,-0.038 0.855,-0.079 1.28,-0.128 l 3.52,3.78 c 0.357,0.384 0.887,0.556 1.4,0.452 0.515,-0.101 0.939,-0.463 1.12,-0.953 l 1.8,-4.83 c 0.418,-0.12 0.833,-0.248 1.25,-0.379 l 4.18,3.01 c 0.425,0.305 0.979,0.37 1.46,0.169 0.484,-0.199 0.83,-0.638 0.914,-1.16 l 0.83,-5.09 c 0.384,-0.199 0.764,-0.406 1.14,-0.613 l 4.69,2.14 c 0.477,0.218 1.03,0.174 1.47,-0.117 0.436,-0.292 0.69,-0.787 0.671,-1.31 l -0.18,-5.17 c 0.334,-0.267 0.665,-0.536 0.991,-0.814 l 5.03,1.18 c 0.511,0.12 1.05,-0.029 1.42,-0.402 0.372,-0.371 0.523,-0.904 0.403,-1.41 l -1.18,-5.03 c 0.276,-0.327 0.548,-0.656 0.814,-0.992 l 5.17,0.181 c 0.521,0.021 1.02,-0.234 1.31,-0.671 0.292,-0.436 0.337,-0.991 0.118,-1.47 l -2.14,-4.69 c 0.209,-0.379 0.414,-0.759 0.612,-1.14 l 5.09,-0.828 c 0.518,-0.083 0.954,-0.429 1.15,-0.914 0.2,-0.483 0.137,-1.04 -0.17,-1.46 l -3.01,-4.18 c 0.13,-0.413 0.257,-0.828 0.378,-1.25 l 4.83,-1.8 c 0.491,-0.184 0.853,-0.607 0.953,-1.12 0.104,-0.514 -0.068,-1.04 -0.452,-1.4 l -3.78,-3.52 c 0.046,-0.425 0.088,-0.853 0.125,-1.28 l 4.39,-2.72 c 0.445,-0.274 0.716,-0.761 0.716,-1.28 0,-0.519 -0.27,-1.01 -0.715,-1.29 z m -29.4,36.5 c -1.68,-0.362 -2.74,-2.02 -2.38,-3.7 0.359,-1.68 2.01,-2.75 3.69,-2.39 1.68,0.359 2.75,2.02 2.39,3.7 -0.36,1.68 -2.01,2.75 -3.69,2.39 z m -1.49,-10.1 c -1.53,-0.328 -3.04,0.646 -3.36,2.18 l -1.56,7.28 c -4.81,2.18 -10.2,3.4 -15.8,3.4 -5.76,0 -11.2,-1.27 -16.1,-3.55 l -1.56,-7.28 c -0.328,-1.53 -1.83,-2.51 -3.36,-2.18 l -6.43,1.38 c -1.19,-1.23 -2.3,-2.54 -3.32,-3.92 h 31.3 c 0.354,0 0.59,-0.064 0.59,-0.386 v -11.1 c 0,-0.322 -0.236,-0.386 -0.59,-0.386 h -9.15 v -7.01 h 9.89 c 0.903,0 4.83,0.258 6.08,5.28 0.393,1.54 1.26,6.56 1.85,8.17 0.588,1.8 2.98,5.4 5.53,5.4 h 15.6 c 0.177,0 0.366,-0.02 0.565,-0.056 -1.08,1.47 -2.27,2.86 -3.54,4.16 l -6.58,-1.41 z m -43.3,9.95 c -1.68,0.362 -3.33,-0.708 -3.69,-2.39 -0.359,-1.68 0.708,-3.34 2.39,-3.7 1.68,-0.359 3.33,0.711 3.69,2.39 0.359,1.68 -0.709,3.34 -2.39,3.7 z m -11.9,-48.1 c 0.696,1.57 -0.012,3.41 -1.58,4.11 -1.57,0.697 -3.4,-0.012 -4.1,-1.58 -0.7,-1.568 0.012,-3.41 1.58,-4.11 1.57,-0.696 3.4,0.012 4.1,1.58 z m -3.65,8.64 6.7,-2.98 c 1.43,-0.635 2.08,-2.31 1.44,-3.74 l -1.38,-3.12 h 5.42 v 24.4 h -10.9 c -0.949,-3.34 -1.46,-6.86 -1.46,-10.5 0,-1.39 0.075,-2.76 0.219,-4.11 z m 29.4,-2.37 v -7.2 h 12.9 c 0.667,0 4.71,0.771 4.71,3.79 0,2.51 -3.1,3.41 -5.65,3.41 h -12 z m 46.9,6.48 c 0,0.956 -0.035,1.9 -0.105,2.84 h -3.93 c -0.393,0 -0.551,0.258 -0.551,0.643 v 1.8 c 0,4.24 -2.39,5.17 -4.49,5.4 -2,0.225 -4.21,-0.836 -4.48,-2.06 -1.18,-6.63 -3.14,-8.04 -6.24,-10.5 3.85,-2.44 7.85,-6.05 7.85,-10.9 0,-5.21 -3.57,-8.49 -6,-10.1 -3.42,-2.25 -7.2,-2.7 -8.22,-2.7 h -40.6 c 5.51,-6.14 13,-10.5 21.4,-12.1 l 4.79,5.02 c 1.08,1.13 2.87,1.18 4.01,0.092 l 5.36,-5.12 c 11.2,2.09 20.7,9.07 26.2,18.7 l -3.67,8.28 c -0.633,1.43 0.013,3.11 1.44,3.74 l 7.06,3.14 c 0.122,1.25 0.186,2.52 0.186,3.8 z m -40.6,-41.9 c 1.24,-1.19 3.21,-1.14 4.39,0.101 1.18,1.24 1.14,3.21 -0.103,4.4 -1.24,1.19 -3.21,1.14 -4.39,-0.102 -1.18,-1.24 -1.14,-3.21 0.103,-4.4 z m 36.4,29.3 c 0.695,-1.57 2.53,-2.28 4.1,-1.58 1.57,0.696 2.28,2.54 1.58,4.11 -0.695,1.57 -2.53,2.28 -4.1,1.58 -1.57,-0.696 -2.28,-2.54 -1.58,-4.11 z"
     id="path6" /></svg>
